<svg xmlns="http://www.w3.org/2000/svg" style="display:none">
  <symbol id="i-menu" viewBox="0 0 24 24"><line x1="4" y1="7" x2="20" y2="7"/><line x1="4" y1="12" x2="20" y2="12"/><line x1="4" y1="17" x2="20" y2="17"/></symbol>
  <symbol id="i-check" viewBox="0 0 24 24"><polyline points="20 6 9 17 4 12"/></symbol>
  <symbol id="i-chevron-right" viewBox="0 0 24 24"><polyline points="9 18 15 12 9 6"/></symbol>
  <symbol id="i-chevron-down" viewBox="0 0 24 24"><polyline points="6 9 12 15 18 9"/></symbol>
  <symbol id="i-arrow-up" viewBox="0 0 24 24"><line x1="12" y1="19" x2="12" y2="5"/><polyline points="5 12 12 5 19 12"/></symbol>
  <symbol id="i-arrow-down" viewBox="0 0 24 24"><line x1="12" y1="5" x2="12" y2="19"/><polyline points="19 12 12 19 5 12"/></symbol>
  <symbol id="i-sun" viewBox="0 0 24 24"><circle cx="12" cy="12" r="4"/><path d="M12 2v2M12 20v2M4.9 4.9l1.4 1.4M17.7 17.7l1.4 1.4M2 12h2M20 12h2M4.9 19.1l1.4-1.4M17.7 6.3l1.4-1.4"/></symbol>
  <symbol id="i-moon" viewBox="0 0 24 24"><path d="M21 12.8A9 9 0 1 1 11.2 3a7 7 0 0 0 9.8 9.8z"/></symbol>
  <symbol id="i-save" viewBox="0 0 24 24"><path d="M19 21H5a2 2 0 0 1-2-2V5a2 2 0 0 1 2-2h11l5 5v11a2 2 0 0 1-2 2z"/><polyline points="17 21 17 13 7 13 7 21"/><polyline points="7 3 7 8 15 8"/></symbol>
  <symbol id="i-trash" viewBox="0 0 24 24"><polyline points="3 6 5 6 21 6"/><path d="M19 6v14a2 2 0 0 1-2 2H7a2 2 0 0 1-2-2V6m3 0V4a2 2 0 0 1 2-2h4a2 2 0 0 1 2 2v2"/></symbol>
  <symbol id="i-export" viewBox="0 0 24 24"><path d="M21 15v4a2 2 0 0 1-2 2H5a2 2 0 0 1-2-2v-4"/><polyline points="17 8 12 3 7 8"/><line x1="12" y1="3" x2="12" y2="15"/></symbol>
  <symbol id="i-import" viewBox="0 0 24 24"><path d="M21 15v4a2 2 0 0 1-2 2H5a2 2 0 0 1-2-2v-4"/><polyline points="7 10 12 15 17 10"/><line x1="12" y1="15" x2="12" y2="3"/></symbol>
  <symbol id="i-rotate-ccw" viewBox="0 0 24 24"><polyline points="1 4 1 10 7 10"/><path d="M3.51 15a9 9 0 1 0 .49-4.51"/></symbol>
  <symbol id="i-rotate-cw" viewBox="0 0 24 24"><polyline points="23 4 23 10 17 10"/><path d="M20.49 15a9 9 0 1 1-.49-4.51"/></symbol>
  <symbol id="i-flip-h" viewBox="0 0 24 24"><line x1="12" y1="3" x2="12" y2="21" stroke-dasharray="2 2"/><path d="M9 6 3 18h6z"/><path d="M15 6l6 12h-6z"/></symbol>
  <symbol id="i-flip-v" viewBox="0 0 24 24"><line x1="3" y1="12" x2="21" y2="12" stroke-dasharray="2 2"/><path d="M6 9 18 3v6z"/><path d="M6 15l12 6v-6z"/></symbol>
  <symbol id="i-plus" viewBox="0 0 24 24"><line x1="12" y1="5" x2="12" y2="19"/><line x1="5" y1="12" x2="19" y2="12"/></symbol>
  <symbol id="i-minus" viewBox="0 0 24 24"><line x1="5" y1="12" x2="19" y2="12"/></symbol>
  <symbol id="i-undo" viewBox="0 0 24 24"><path d="M9 14 4 9l5-5"/><path d="M4 9h10.5a5.5 5.5 0 0 1 0 11H11"/></symbol>
  <symbol id="i-redo" viewBox="0 0 24 24"><path d="m15 14 5-5-5-5"/><path d="M20 9H9.5a5.5 5.5 0 0 0 0 11H13"/></symbol>
  <symbol id="i-remnant" viewBox="0 0 24 24"><rect x="2" y="9" width="13" height="6" rx="1"/><rect x="17" y="9" width="5" height="6" rx="1" stroke-dasharray="2 1.5"/></symbol>
  <symbol id="i-gear" viewBox="0 0 24 24"><circle cx="12" cy="12" r="3"/><path d="M19.4 15a1.65 1.65 0 0 0 .33 1.82l.06.06a2 2 0 0 1-2.83 2.83l-.06-.06a1.65 1.65 0 0 0-1.82-.33 1.65 1.65 0 0 0-1 1.51V21a2 2 0 0 1-4 0v-.09A1.65 1.65 0 0 0 9 19.4a1.65 1.65 0 0 0-1.82.33l-.06.06a2 2 0 0 1-2.83-2.83l.06-.06A1.65 1.65 0 0 0 4.68 15a1.65 1.65 0 0 0-1.51-1H3a2 2 0 0 1 0-4h.09A1.65 1.65 0 0 0 4.6 9a1.65 1.65 0 0 0-.33-1.82l-.06-.06a2 2 0 0 1 2.83-2.83l.06.06A1.65 1.65 0 0 0 9 4.68a1.65 1.65 0 0 0 1-1.51V3a2 2 0 0 1 4 0v.09a1.65 1.65 0 0 0 1 1.51 1.65 1.65 0 0 0 1.82-.33l.06-.06a2 2 0 0 1 2.83 2.83l-.06.06A1.65 1.65 0 0 0 19.4 9a1.65 1.65 0 0 0 1.51 1H21a2 2 0 0 1 0 4h-.09a1.65 1.65 0 0 0-1.51 1z"/></symbol>
  <symbol id="i-play" viewBox="0 0 24 24"><path d="M7 4.5v15l12-7.5z"/></symbol>
  <symbol id="i-stop" viewBox="0 0 24 24"><rect x="6" y="6" width="12" height="12" rx="1.5"/></symbol>
  <symbol id="i-search" viewBox="0 0 24 24"><circle cx="11" cy="11" r="7"/><line x1="21" y1="21" x2="16.65" y2="16.65"/></symbol>
  <symbol id="i-x" viewBox="0 0 24 24"><line x1="18" y1="6" x2="6" y2="18"/><line x1="6" y1="6" x2="18" y2="18"/></symbol>
  <symbol id="i-more" viewBox="0 0 24 24"><circle cx="5" cy="12" r="1"/><circle cx="12" cy="12" r="1"/><circle cx="19" cy="12" r="1"/></symbol>
  <symbol id="i-folder" viewBox="0 0 24 24"><path d="M3 7a2 2 0 0 1 2-2h4l2 2h8a2 2 0 0 1 2 2v8a2 2 0 0 1-2 2H5a2 2 0 0 1-2-2z"/></symbol>
  <symbol id="i-scissors" viewBox="0 0 24 24"><circle cx="6" cy="6" r="3"/><circle cx="6" cy="18" r="3"/><line x1="20" y1="4" x2="8.12" y2="15.88"/><line x1="14.47" y1="14.48" x2="20" y2="20"/><line x1="8.12" y1="8.12" x2="12" y2="12"/></symbol>
  <symbol id="i-nest" viewBox="0 0 24 24"><rect x="2" y="4" width="20" height="5" rx="1"/><rect x="2" y="15" width="20" height="5" rx="1"/><line x1="10" y1="4" x2="10" y2="9"/><line x1="15" y1="15" x2="15" y2="20"/></symbol>
  <symbol id="i-coins" viewBox="0 0 24 24"><ellipse cx="9" cy="6" rx="6" ry="3"/><path d="M3 6v5c0 1.66 2.69 3 6 3s6-1.34 6-3V6"/><path d="M15 10.5c3.31 0 6 1.34 6 3s-2.69 3-6 3-6-1.34-6-3"/><path d="M9 14v4c0 1.66 2.69 3 6 3s6-1.34 6-3v-4.5"/></symbol>
  <symbol id="i-beam" viewBox="0 0 24 24"><path d="M5 4h14M5 20h14M12 4v16"/><path d="M8 4v2M16 4v2M8 20v-2M16 20v-2"/></symbol>
  <symbol id="i-boxes" viewBox="0 0 24 24"><rect x="2" y="13" width="9" height="8" rx="1"/><rect x="13" y="13" width="9" height="8" rx="1"/><rect x="7.5" y="3" width="9" height="8" rx="1"/></symbol>
  <symbol id="i-keyboard" viewBox="0 0 24 24"><rect x="2" y="6" width="20" height="12" rx="2"/><path d="M6 10h.01M10 10h.01M14 10h.01M18 10h.01M7 14h10"/></symbol>
  <symbol id="i-magnet" viewBox="0 0 24 24"><path d="M6 3v8a6 6 0 0 0 12 0V3"/><path d="M6 3h4v8a2 2 0 0 0 4 0V3h4"/><line x1="6" y1="7" x2="10" y2="7"/><line x1="14" y1="7" x2="18" y2="7"/></symbol>
  <symbol id="i-common" viewBox="0 0 24 24"><rect x="2" y="8" width="9" height="8" rx="1"/><rect x="13" y="8" width="9" height="8" rx="1"/><line x1="12" y1="4" x2="12" y2="20"/></symbol>
  <symbol id="i-pdf" viewBox="0 0 24 24"><path d="M14 2H6a2 2 0 0 0-2 2v16a2 2 0 0 0 2 2h12a2 2 0 0 0 2-2V8z"/><polyline points="14 2 14 8 20 8"/><path d="M8 15h1.5a1.5 1.5 0 0 0 0-3H8v5"/></symbol>
  <symbol id="i-dxf" viewBox="0 0 24 24"><rect x="3" y="3" width="18" height="18" rx="2"/><path d="M7 17 17 7M7 7h4M13 17h4"/></symbol>
  <symbol id="i-image" viewBox="0 0 24 24"><rect x="3" y="3" width="18" height="18" rx="2"/><circle cx="8.5" cy="8.5" r="1.5"/><polyline points="21 15 16 10 5 21"/></symbol>
  <symbol id="i-print" viewBox="0 0 24 24"><polyline points="6 9 6 2 18 2 18 9"/><path d="M6 18H4a2 2 0 0 1-2-2v-5a2 2 0 0 1 2-2h16a2 2 0 0 1 2 2v5a2 2 0 0 1-2 2h-2"/><rect x="6" y="14" width="12" height="8"/></symbol>
  <symbol id="i-excel" viewBox="0 0 24 24"><path d="M14 2H6a2 2 0 0 0-2 2v16a2 2 0 0 0 2 2h12a2 2 0 0 0 2-2V8z"/><polyline points="14 2 14 8 20 8"/><path d="m9 12 6 6M15 12l-6 6"/></symbol>
  <symbol id="i-doc" viewBox="0 0 24 24"><path d="M14 2H6a2 2 0 0 0-2 2v16a2 2 0 0 0 2 2h12a2 2 0 0 0 2-2V8z"/><polyline points="14 2 14 8 20 8"/><line x1="8" y1="13" x2="16" y2="13"/><line x1="8" y1="17" x2="13" y2="17"/></symbol>
  <symbol id="i-pencil" viewBox="0 0 24 24"><path d="M17 3a2.83 2.83 0 1 1 4 4L7.5 20.5 2 22l1.5-5.5z"/></symbol>
  <symbol id="i-layers" viewBox="0 0 24 24"><polygon points="12 2 2 7 12 12 22 7 12 2"/><polyline points="2 17 12 22 22 17"/><polyline points="2 12 12 17 22 12"/></symbol>
  <symbol id="i-copy" viewBox="0 0 24 24"><rect x="9" y="9" width="13" height="13" rx="2"/><path d="M5 15H4a2 2 0 0 1-2-2V4a2 2 0 0 1 2-2h9a2 2 0 0 1 2 2v1"/></symbol>
  <symbol id="i-fit" viewBox="0 0 24 24"><path d="M3 8V5a2 2 0 0 1 2-2h3M16 3h3a2 2 0 0 1 2 2v3M21 16v3a2 2 0 0 1-2 2h-3M8 21H5a2 2 0 0 1-2-2v-3"/></symbol>
  <symbol id="i-material" viewBox="0 0 24 24"><path d="M3 7l9-4 9 4-9 4z"/><path d="M3 7v10l9 4 9-4V7"/><line x1="12" y1="11" x2="12" y2="21"/></symbol>
  <symbol id="i-cursor" viewBox="0 0 24 24"><path d="M4 3l7 18 2.5-7.5L21 11z"/></symbol>
  <symbol id="i-hand" viewBox="0 0 24 24"><path d="M18 11V6a2 2 0 0 0-4 0v5M14 10V4a2 2 0 0 0-4 0v6M10 10.5V6a2 2 0 0 0-4 0v8"/><path d="M18 8a2 2 0 1 1 4 0v6a8 8 0 0 1-8 8h-2c-2.8 0-4.5-.86-5.99-2.34l-3.6-3.6a2 2 0 0 1 2.83-2.82L7 15"/></symbol>
  <symbol id="i-calc" viewBox="0 0 24 24"><rect x="4" y="2" width="16" height="20" rx="2"/><line x1="8" y1="6" x2="16" y2="6"/><path d="M8 11h.01M12 11h.01M16 11h.01M8 15h.01M12 15h.01M16 15h.01M8 19h.01M12 19h.01M16 19h.01"/></symbol>
  <symbol id="i-lock" viewBox="0 0 24 24"><rect x="4" y="11" width="16" height="10" rx="2"/><path d="M8 11V7a4 4 0 0 1 8 0v4"/></symbol>
  <symbol id="i-unlock" viewBox="0 0 24 24"><rect x="4" y="11" width="16" height="10" rx="2"/><path d="M8 11V7a4 4 0 0 1 7.9-1"/></symbol>
  <symbol id="i-grid" viewBox="0 0 24 24"><rect x="3" y="3" width="7" height="7" rx="1"/><rect x="14" y="3" width="7" height="7" rx="1"/><rect x="3" y="14" width="7" height="7" rx="1"/><rect x="14" y="14" width="7" height="7" rx="1"/></symbol>
  <symbol id="i-list" viewBox="0 0 24 24"><line x1="8" y1="6" x2="21" y2="6"/><line x1="8" y1="12" x2="21" y2="12"/><line x1="8" y1="18" x2="21" y2="18"/><path d="M3 6h.01M3 12h.01M3 18h.01"/></symbol>
  <symbol id="i-refresh" viewBox="0 0 24 24"><path d="M21 12a9 9 0 0 1-15.5 6.2L3 16"/><path d="M3 12a9 9 0 0 1 15.5-6.2L21 8"/><polyline points="21 3 21 8 16 8"/><polyline points="3 21 3 16 8 16"/></symbol>
  <symbol id="i-calendar" viewBox="0 0 24 24"><rect x="3" y="4" width="18" height="18" rx="2"/><line x1="16" y1="2" x2="16" y2="6"/><line x1="8" y1="2" x2="8" y2="6"/><line x1="3" y1="10" x2="21" y2="10"/></symbol>
  <symbol id="i-user" viewBox="0 0 24 24"><circle cx="12" cy="8" r="4"/><path d="M4 21a8 8 0 0 1 16 0"/></symbol>
  <symbol id="i-tag" viewBox="0 0 24 24"><path d="M20.6 13.4 13.4 20.6a2 2 0 0 1-2.8 0L3 13V3h10l7.6 7.6a2 2 0 0 1 0 2.8z"/><circle cx="7.5" cy="7.5" r="1.5"/></symbol>
  <symbol id="i-github" viewBox="0 0 24 24"><path d="M9 19c-5 1.5-5-2.5-7-3m14 6v-3.87a3.37 3.37 0 0 0-.94-2.61c3.14-.35 6.44-1.54 6.44-7A5.44 5.44 0 0 0 20 4.77 5.07 5.07 0 0 0 19.91 1S18.73.65 16 2.48a13.38 13.38 0 0 0-7 0C6.27.65 5.09 1 5.09 1A5.07 5.07 0 0 0 5 4.77a5.44 5.44 0 0 0-1.5 3.78c0 5.42 3.3 6.61 6.44 7A3.37 3.37 0 0 0 9 18.13V22"/></symbol>
  <symbol id="i-info" viewBox="0 0 24 24"><circle cx="12" cy="12" r="10"/><line x1="12" y1="16" x2="12" y2="12"/><line x1="12" y1="8" x2="12.01" y2="8"/></symbol>
  <symbol id="i-line" viewBox="0 0 24 24"><line x1="5" y1="19" x2="19" y2="5"/><circle cx="5" cy="19" r="1.6"/><circle cx="19" cy="5" r="1.6"/></symbol>
  <symbol id="i-rect" viewBox="0 0 24 24"><rect x="4" y="6.5" width="16" height="11" rx="1"/></symbol>
  <symbol id="i-circle" viewBox="0 0 24 24"><circle cx="12" cy="12" r="8"/></symbol>
  <symbol id="i-polygon" viewBox="0 0 24 24"><path d="M12 4 20 18H4z"/></symbol>
  <symbol id="i-arc3" viewBox="0 0 24 24"><path d="M4 17Q12 3 20 17"/><circle cx="4" cy="17" r="1.5"/><circle cx="12" cy="8" r="1.5"/><circle cx="20" cy="17" r="1.5"/></symbol>
  <symbol id="i-arccse" viewBox="0 0 24 24"><path d="M5 18A9 9 0 0 1 19 18"/><circle cx="12" cy="18" r="1.5"/></symbol>
  <symbol id="i-trim" viewBox="0 0 24 24"><circle cx="6" cy="17" r="2.4"/><circle cx="6" cy="7" r="2.4"/><line x1="8.2" y1="15.8" x2="20" y2="5"/><line x1="8.2" y1="8.2" x2="20" y2="19"/></symbol>
  <symbol id="i-extend" viewBox="0 0 24 24"><line x1="3" y1="12" x2="14" y2="12"/><polyline points="11 8 15 12 11 16"/><line x1="19" y1="5" x2="19" y2="19"/></symbol>
  <symbol id="i-ortho" viewBox="0 0 24 24"><path d="M5 4v15h15"/><rect x="5" y="14" width="5" height="5"/></symbol>
  <symbol id="i-void" viewBox="0 0 24 24"><rect x="5" y="5" width="14" height="14" rx="1"/><line x1="6" y1="18" x2="18" y2="6"/></symbol>
</svg>
